# xmcd
#
# Track frame offsets:
#	150
#	18174
#	30652
#	47156
#	62296
#	82039
#	102171
#	117974
#	133211
#	151352
#	172144
#	187888
#	204982
#	234099
#	248018
#	263482
#	278700
#	292331
#	308388
#
# Disc length: 4327 seconds
#
# Revision: 0
# Processed by: cddbd v1.5.2PL0 Copyright (c) Steve Scherf et al.
# Submitted via: EasyCDDAExtractor 12.1.0.1
#
DISCID=f810e513
DTITLE=Various Artist - Nrj Back 2 School 2007
DYEAR=2007
DGENRE=Pop
TTITLE0=Gregory Lemarchal - De Temps En Temps
TTITLE1=Linkin Park - Bleed It Out
TTITLE2=Melissa - Elle
TTITLE3=David Guetta - Love Is Gone
TTITLE4=The Fray - How To Save A Life
TTITLE5=Thierry Amiel - De La Haut
TTITLE6=Kelly Rowland Feat. Sean P - Like This
TTITLE7=Art Meson - Manureva 2007
TTITLE8=Hellogoodbye - Here (In Your Arms)
TTITLE9=Perle Lama - Elle Et Toi
TTITLE10=Pakito - Are U Ready?
TTITLE11=Jean Racine - Faisons L'amour
TTITLE12=P.Diddy Feat. Keyshia Cole - Last Night
TTITLE13=Papa A.P. and Linda - Muñequita
TTITLE14=Steve'n King  - Bounce
TTITLE15=Shy'm - T'es Parti
TTITLE16=The Migrants - I Thought That
TTITLE17=Michael Buble - Everything
TTITLE18=Nelly Furtado - Say It Right
EXTD=
EXTT0=
EXTT1=
EXTT2=
EXTT3=
EXTT4=
EXTT5=
EXTT6=
EXTT7=
EXTT8=
EXTT9=
EXTT10=
EXTT11=
EXTT12=
EXTT13=
EXTT14=
EXTT15=
EXTT16=
EXTT17=
EXTT18=
PLAYORDER=
